<svg width="16" height="16" viewBox="0 0 16 16" fill="none" xmlns="http://www.w3.org/2000/svg">
<path d="M13.7035 0H3.92576C3.49356 0 3.07906 0.168571 2.77344 0.468629C2.46783 0.768687 2.29613 1.17565 2.29613 1.6V2.4H1.48132C1.26522 2.4 1.05797 2.48429 0.905158 2.63431C0.75235 2.78434 0.666504 2.98783 0.666504 3.2C0.666504 3.41217 0.75235 3.61566 0.905158 3.76569C1.05797 3.91571 1.26522 4 1.48132 4H2.29613V5.6H1.48132C1.26522 5.6 1.05797 5.68429 0.905158 5.83431C0.75235 5.98434 0.666504 6.18783 0.666504 6.4C0.666504 6.61217 0.75235 6.81566 0.905158 6.96569C1.05797 7.11571 1.26522 7.2 1.48132 7.2H2.29613V8.8H1.48132C1.26522 8.8 1.05797 8.88429 0.905158 9.03432C0.75235 9.18434 0.666504 9.38783 0.666504 9.6C0.666504 9.81217 0.75235 10.0157 0.905158 10.1657C1.05797 10.3157 1.26522 10.4 1.48132 10.4H2.29613V12H1.48132C1.26522 12 1.05797 12.0843 0.905158 12.2343C0.75235 12.3843 0.666504 12.5878 0.666504 12.8C0.666504 13.0122 0.75235 13.2157 0.905158 13.3657C1.05797 13.5157 1.26522 13.6 1.48132 13.6H2.29613V14.4C2.29613 14.8243 2.46783 15.2313 2.77344 15.5314C3.07906 15.8314 3.49356 16 3.92576 16H13.7035C14.1357 16 14.5502 15.8314 14.8559 15.5314C15.1615 15.2313 15.3332 14.8243 15.3332 14.4V1.6C15.3332 1.17565 15.1615 0.768687 14.8559 0.468629C14.5502 0.168571 14.1357 0 13.7035 0ZM13.7035 14.4H3.92576V13.6C4.14187 13.6 4.34912 13.5157 4.50192 13.3657C4.65473 13.2157 4.74058 13.0122 4.74058 12.8C4.74058 12.5878 4.65473 12.3843 4.50192 12.2343C4.34912 12.0843 4.14187 12 3.92576 12V10.4C4.14187 10.4 4.34912 10.3157 4.50192 10.1657C4.65473 10.0157 4.74058 9.81217 4.74058 9.6C4.74058 9.38783 4.65473 9.18434 4.50192 9.03432C4.34912 8.88429 4.14187 8.8 3.92576 8.8V7.2C4.14187 7.2 4.34912 7.11571 4.50192 6.96569C4.65473 6.81566 4.74058 6.61217 4.74058 6.4C4.74058 6.18783 4.65473 5.98434 4.50192 5.83431C4.34912 5.68429 4.14187 5.6 3.92576 5.6V4C4.14187 4 4.34912 3.91571 4.50192 3.76569C4.65473 3.61566 4.74058 3.41217 4.74058 3.2C4.74058 2.98783 4.65473 2.78434 4.50192 2.63431C4.34912 2.48429 4.14187 2.4 3.92576 2.4V1.6H13.7035V14.4Z" fill="#121714"/>
<path d="M9.22206 8.8C9.7861 8.8 10.3375 8.63578 10.8065 8.32812C11.2754 8.02045 11.641 7.58315 11.8568 7.07151C12.0727 6.55988 12.1292 5.99689 12.0191 5.45375C11.9091 4.9106 11.6375 4.41169 11.2386 4.0201C10.8398 3.62851 10.3316 3.36184 9.77843 3.2538C9.22522 3.14576 8.65181 3.20121 8.1307 3.41314C7.6096 3.62506 7.1642 3.98395 6.85083 4.4444C6.53747 4.90486 6.37021 5.44621 6.37021 6C6.37021 6.74261 6.67067 7.4548 7.2055 7.9799C7.74032 8.505 8.4657 8.8 9.22206 8.8ZM9.22206 4.8C9.46379 4.8 9.7001 4.87038 9.90109 5.00224C10.1021 5.13409 10.2587 5.32151 10.3512 5.54078C10.4438 5.76005 10.468 6.00133 10.4208 6.23411C10.3736 6.46689 10.2572 6.68071 10.0863 6.84853C9.91537 7.01635 9.69759 7.13064 9.4605 7.17694C9.22342 7.22325 8.97767 7.19948 8.75434 7.10866C8.531 7.01783 8.34012 6.86402 8.20582 6.66668C8.07152 6.46935 7.99984 6.23734 7.99984 6C7.99984 5.68174 8.12861 5.37652 8.35782 5.15147C8.58703 4.92643 8.89791 4.8 9.22206 4.8Z" fill="#121714"/>
<path d="M6.42806 13.8288C6.64416 13.8288 6.85141 13.7445 7.00422 13.5945C7.15703 13.4445 7.24287 13.241 7.24287 13.0288C7.24287 12.5134 7.45139 12.0192 7.82256 11.6547C8.19373 11.2903 8.69715 11.0856 9.22206 11.0856C9.74697 11.0856 10.2504 11.2903 10.6216 11.6547C10.9927 12.0192 11.2012 12.5134 11.2012 13.0288C11.2012 13.241 11.2871 13.4445 11.4399 13.5945C11.5927 13.7445 11.8 13.8288 12.0161 13.8288C12.2322 13.8288 12.4394 13.7445 12.5922 13.5945C12.745 13.4445 12.8309 13.241 12.8309 13.0288C12.8309 12.0891 12.4507 11.1879 11.7739 10.5234C11.0971 9.8589 10.1792 9.4856 9.22206 9.4856C8.26494 9.4856 7.34703 9.8589 6.67024 10.5234C5.99346 11.1879 5.61324 12.0891 5.61324 13.0288C5.61324 13.1339 5.63432 13.2379 5.67527 13.3349C5.71622 13.432 5.77624 13.5202 5.8519 13.5945C5.92756 13.6688 6.01739 13.7277 6.11624 13.7679C6.2151 13.8081 6.32106 13.8288 6.42806 13.8288Z" fill="#121714"/>
</svg>
