<svg width="20" height="20" viewBox="0 0 20 20" fill="none" xmlns="http://www.w3.org/2000/svg">
<path d="M17.2915 20H4.7915C3.9627 20 3.16785 19.6839 2.5818 19.1213C1.99574 18.5587 1.6665 17.7956 1.6665 17V2C1.6665 1.46957 1.886 0.960859 2.2767 0.585786C2.6674 0.210714 3.1973 0 3.74984 0H16.2498C16.8024 0 17.3323 0.210714 17.723 0.585786C18.1137 0.960859 18.3332 1.46957 18.3332 2V14C18.3332 14.5304 18.1137 15.0391 17.723 15.4142C17.3323 15.7893 16.8024 16 16.2498 16H4.7915C4.51524 16 4.25028 16.1054 4.05493 16.2929C3.85958 16.4804 3.74984 16.7348 3.74984 17C3.74984 17.2652 3.85958 17.5196 4.05493 17.7071C4.25028 17.8946 4.51524 18 4.7915 18H17.2915C17.5678 18 17.8327 18.1054 18.0281 18.2929C18.2234 18.4804 18.3332 18.7348 18.3332 19C18.3332 19.2652 18.2234 19.5196 18.0281 19.7071C17.8327 19.8946 17.5678 20 17.2915 20ZM3.74984 2V14.171C4.08443 14.0576 4.43669 13.9998 4.7915 14H16.2498V2H3.74984Z" fill="#1F2A37"/>
<path d="M6.87484 16C6.59857 16 6.33362 15.8946 6.13827 15.7071C5.94292 15.5196 5.83317 15.2652 5.83317 15V1C5.83317 0.734784 5.94292 0.48043 6.13827 0.292893C6.33362 0.105357 6.59857 0 6.87484 0C7.1511 0 7.41606 0.105357 7.61141 0.292893C7.80676 0.48043 7.9165 0.734784 7.9165 1V15C7.9165 15.2652 7.80676 15.5196 7.61141 15.7071C7.41606 15.8946 7.1511 16 6.87484 16Z" fill="#1F2A37"/>
<path d="M15.2082 20C14.9319 20 14.667 19.8946 14.4716 19.7071C14.2762 19.5196 14.1665 19.2652 14.1665 19V15C14.1665 14.7348 14.2762 14.4804 14.4716 14.2929C14.667 14.1054 14.9319 14 15.2082 14C15.4844 14 15.7494 14.1054 15.9447 14.2929C16.1401 14.4804 16.2498 14.7348 16.2498 15V19C16.2498 19.2652 16.1401 19.5196 15.9447 19.7071C15.7494 19.8946 15.4844 20 15.2082 20Z" fill="#1F2A37"/>
</svg>
