<svg width="20" height="20" viewBox="0 0 20 20" fill="none" xmlns="http://www.w3.org/2000/svg">
<path d="M18 11.7949H15.45L13.45 13.8462H18V17.9487H2V13.8462H6.55L4.55 11.7949H2C1.46957 11.7949 0.960859 12.011 0.585786 12.3957C0.210714 12.7804 0 13.3021 0 13.8462V17.9487C0 18.4928 0.210714 19.0145 0.585786 19.3992C0.960859 19.7839 1.46957 20 2 20H18C18.5304 20 19.0391 19.7839 19.4142 19.3992C19.7893 19.0145 20 18.4928 20 17.9487V13.8462C20 13.3021 19.7893 12.7804 19.4142 12.3957C19.0391 12.011 18.5304 11.7949 18 11.7949Z" fill="#1F2A37"/>
<path d="M9.292 13.0318C9.38489 13.1273 9.49524 13.2031 9.61673 13.2548C9.73822 13.3065 9.86847 13.3331 10 13.3331C10.1315 13.3331 10.2618 13.3065 10.3833 13.2548C10.5048 13.2031 10.6151 13.1273 10.708 13.0318L14.708 8.92923C14.8902 8.73579 14.991 8.47671 14.9887 8.20779C14.9864 7.93887 14.8812 7.68163 14.6958 7.49147C14.5104 7.30131 14.2596 7.19344 13.9974 7.1911C13.7352 7.18877 13.4826 7.29215 13.294 7.47897L11 9.83179V1.02564C11 0.753624 10.8946 0.492748 10.7071 0.300403C10.5196 0.108058 10.2652 0 10 0C9.73478 0 9.48043 0.108058 9.29289 0.300403C9.10536 0.492748 9 0.753624 9 1.02564V9.83179L6.707 7.48C6.61475 7.38204 6.50441 7.3039 6.3824 7.25015C6.2604 7.1964 6.12918 7.16811 5.9964 7.16692C5.86362 7.16574 5.73194 7.19169 5.60905 7.24326C5.48615 7.29483 5.3745 7.37099 5.2806 7.46729C5.18671 7.56359 5.11246 7.6781 5.06218 7.80415C5.0119 7.9302 4.9866 8.06525 4.98775 8.20144C4.9889 8.33762 5.01649 8.47221 5.0689 8.59734C5.12131 8.72247 5.19749 8.83564 5.293 8.93026L9.292 13.0318Z" fill="#1F2A37"/>
<path d="M15 16.9231C15.5523 16.9231 16 16.4639 16 15.8974C16 15.331 15.5523 14.8718 15 14.8718C14.4477 14.8718 14 15.331 14 15.8974C14 16.4639 14.4477 16.9231 15 16.9231Z" fill="#1F2A37"/>
</svg>
