<svg width="20" height="20" viewBox="0 0 20 20" fill="none" xmlns="http://www.w3.org/2000/svg">
<path d="M6.65541 9.47369C5.74412 9.47369 4.85329 9.19588 4.09557 8.67538C3.33786 8.15489 2.74729 7.4151 2.39855 6.54955C2.04981 5.68401 1.95857 4.73159 2.13635 3.81273C2.31414 2.89387 2.75297 2.04985 3.39735 1.38739C4.04174 0.724932 4.86273 0.273791 5.75652 0.0910192C6.6503 -0.0917529 7.57674 0.00205238 8.41866 0.360573C9.26059 0.719093 9.9802 1.32623 10.4865 2.1052C10.9928 2.88416 11.263 3.79998 11.263 4.73684C11.2617 5.9927 10.7758 7.19673 9.91198 8.08476C9.04818 8.97279 7.87701 9.47229 6.65541 9.47369ZM6.65541 2.10526C6.14914 2.10526 5.65423 2.2596 5.23328 2.54877C4.81233 2.83793 4.48423 3.24892 4.29049 3.72978C4.09675 4.21064 4.04605 4.73976 4.14482 5.25024C4.24359 5.76072 4.48739 6.22962 4.84538 6.59765C5.20337 6.96568 5.65948 7.21632 6.15603 7.31786C6.65257 7.4194 7.16726 7.36728 7.635 7.16811C8.10273 6.96893 8.50252 6.63163 8.78379 6.19887C9.06506 5.76611 9.21519 5.25732 9.21519 4.73684C9.21519 4.03891 8.9455 3.36955 8.46545 2.87604C7.9854 2.38252 7.33431 2.10526 6.65541 2.10526Z" fill="#1F2A37"/>
<path d="M5.23116 18.2747L5.30488 17.8947H2.04782V15.7895C2.04782 14.9519 2.37145 14.1487 2.94751 13.5565C3.52357 12.9643 4.30488 12.6316 5.11955 12.6316H7.09467L9.05546 10.6158C8.77038 10.5609 8.48128 10.5309 8.19128 10.5263H5.11955C3.76226 10.528 2.46103 11.083 1.50128 12.0697C0.541527 13.0564 0.00162582 14.3941 0 15.7895V18.9474C0 19.2265 0.107876 19.4943 0.299896 19.6917C0.491917 19.8891 0.752352 20 1.02391 20H5.38474C5.17675 19.4512 5.12352 18.8532 5.23116 18.2747Z" fill="#1F2A37"/>
<path d="M8.24247 19.9474C8.09054 19.9476 7.94047 19.913 7.80314 19.8461C7.66581 19.7793 7.54468 19.6819 7.44851 19.561C7.35235 19.44 7.28357 19.2986 7.24716 19.147C7.21075 18.9953 7.20763 18.8373 7.23802 18.6842L7.96295 14.9621C8.00274 14.7583 8.10036 14.5711 8.2435 14.4242L14.7586 7.72526C15.3356 7.13473 16.1167 6.80319 16.9309 6.80319C17.745 6.80319 18.5261 7.13473 19.1031 7.72526C19.6775 8.31845 20 9.1214 20 9.95842C20 10.7954 19.6775 11.5984 19.1031 12.1916L12.5859 18.8895C12.443 19.0366 12.261 19.137 12.0627 19.1779L8.44214 19.9232C8.37643 19.9374 8.3096 19.9455 8.24247 19.9474ZM9.91042 15.6916L9.54796 17.5526L11.3582 17.18L17.6553 10.7074C17.7503 10.6096 17.8257 10.4935 17.8772 10.3657C17.9286 10.238 17.955 10.101 17.955 9.96279C17.9549 9.82453 17.9284 9.68763 17.8769 9.55991C17.8254 9.43219 17.7499 9.31615 17.6548 9.21842C17.5596 9.12069 17.4467 9.04318 17.3224 8.99032C17.1982 8.93745 17.065 8.91026 16.9305 8.91031C16.796 8.91036 16.6628 8.93764 16.5386 8.9906C16.4144 9.04356 16.3015 9.12115 16.2064 9.21895L9.91042 15.6916Z" fill="#1F2A37"/>
</svg>
