<svg width="20" height="20" viewBox="0 0 20 20" fill="none" xmlns="http://www.w3.org/2000/svg">
<path d="M12.219 20C11.9803 20 11.748 19.9241 11.557 19.7838L7.11891 16.5405C6.98187 16.4398 6.87064 16.3093 6.79403 16.1591C6.71742 16.009 6.67754 15.8435 6.67754 15.6757V11.7081L0.433156 3.44865C0.190019 3.12687 0.042843 2.74528 0.0080261 2.34639C-0.0267908 1.94749 0.0521188 1.54695 0.235963 1.18941C0.419807 0.83186 0.701365 0.531344 1.04927 0.321339C1.39717 0.111335 1.79775 9.03518e-05 2.20639 0H17.7936C18.2022 9.03518e-05 18.6028 0.111335 18.9507 0.321339C19.2986 0.531344 19.5802 0.83186 19.764 1.18941C19.9479 1.54695 20.0268 1.94749 19.992 2.34639C19.9572 2.74528 19.81 3.12687 19.5668 3.44865L13.3225 11.7081V18.9189C13.3225 19.2056 13.2062 19.4806 12.9993 19.6834C12.7923 19.8861 12.5117 20 12.219 20ZM8.88442 15.1351L11.1156 16.7643V11.3514C11.1156 11.1174 11.193 10.8898 11.3363 10.7027L17.7936 2.16216H2.20639L8.66815 10.7027C8.8114 10.8898 8.88883 11.1174 8.88883 11.3514L8.88442 15.1351Z" fill="#1F2A37"/>
</svg>
