<svg width="20" height="20" viewBox="0 0 20 20" fill="none" xmlns="http://www.w3.org/2000/svg">
<path d="M19.8058 5.17573C19.2778 3.17135 17.7248 1.59168 15.7549 1.05494C13.8249 0.531439 11.7749 1.06309 10.01 2.5185C8.72199 1.44807 7.29501 0.868557 5.83803 0.833929C4.25506 0.811522 2.77809 1.40122 1.66411 2.53276C-0.429859 4.66241 -0.886851 8.50821 2.2901 11.7388L9.29998 18.8682C9.49597 19.0668 9.75197 19.1666 10.008 19.1666C10.264 19.1666 10.52 19.0668 10.716 18.8682L17.7258 11.7388C19.6348 9.79761 20.3928 7.40519 19.8058 5.17573ZM16.3099 10.2987L10.008 16.708L3.70607 10.2987C1.35511 7.90628 1.7331 5.34378 3.08008 3.9729C3.73107 3.31088 4.65506 2.87905 5.70304 2.87905C6.82302 2.87905 8.084 3.37301 9.29898 4.60945C9.68997 5.00768 10.324 5.00768 10.715 4.60945C13.0469 2.23842 15.5579 2.63563 16.9028 4.00447C17.6268 4.74185 18.0138 5.7196 17.9948 6.75743C17.9728 7.97656 17.3898 9.20078 16.3099 10.2987Z" fill="#1F2A37"/>
</svg>
