<svg width="20" height="20" viewBox="0 0 20 20" fill="none" xmlns="http://www.w3.org/2000/svg">
<path d="M9.9915 1.66675C5.3915 1.66675 1.6665 5.40008 1.6665 10.0001C1.6665 14.6001 5.3915 18.3334 9.9915 18.3334C14.5998 18.3334 18.3332 14.6001 18.3332 10.0001C18.3332 5.40008 14.5998 1.66675 9.9915 1.66675ZM15.7665 6.66675H13.3082C13.0415 5.62508 12.6582 4.62508 12.1582 3.70008C13.6915 4.22508 14.9665 5.29175 15.7665 6.66675ZM9.99984 3.36675C10.6915 4.36675 11.2332 5.47508 11.5915 6.66675H8.40817C8.7665 5.47508 9.30817 4.36675 9.99984 3.36675ZM3.54984 11.6667C3.4165 11.1334 3.33317 10.5751 3.33317 10.0001C3.33317 9.42508 3.4165 8.86675 3.54984 8.33342H6.3665C6.29984 8.88342 6.24984 9.43341 6.24984 10.0001C6.24984 10.5667 6.29984 11.1167 6.3665 11.6667H3.54984ZM4.23317 13.3334H6.6915C6.95817 14.3751 7.3415 15.3751 7.8415 16.3001C6.30817 15.7751 5.03317 14.7167 4.23317 13.3334ZM6.6915 6.66675H4.23317C5.03317 5.28341 6.30817 4.22508 7.8415 3.70008C7.3415 4.62508 6.95817 5.62508 6.6915 6.66675ZM9.99984 16.6334C9.30817 15.6334 8.7665 14.5251 8.40817 13.3334H11.5915C11.2332 14.5251 10.6915 15.6334 9.99984 16.6334ZM11.9498 11.6667H8.04984C7.97484 11.1167 7.9165 10.5667 7.9165 10.0001C7.9165 9.43341 7.97484 8.87508 8.04984 8.33342H11.9498C12.0248 8.87508 12.0832 9.43341 12.0832 10.0001C12.0832 10.5667 12.0248 11.1167 11.9498 11.6667ZM12.1582 16.3001C12.6582 15.3751 13.0415 14.3751 13.3082 13.3334H15.7665C14.9665 14.7084 13.6915 15.7751 12.1582 16.3001ZM13.6332 11.6667C13.6998 11.1167 13.7498 10.5667 13.7498 10.0001C13.7498 9.43341 13.6998 8.88342 13.6332 8.33342H16.4498C16.5832 8.86675 16.6665 9.42508 16.6665 10.0001C16.6665 10.5751 16.5832 11.1334 16.4498 11.6667H13.6332Z" fill="black"/>
</svg>
