<svg width="20" height="20" viewBox="0 0 20 20" fill="none" xmlns="http://www.w3.org/2000/svg">
<path d="M10 18.3334C9.80896 18.3334 9.62193 18.2797 9.46101 18.1787C9.3001 18.0777 9.17204 17.9337 9.092 17.7635C8.024 17.0515 2.583 15.9501 1.5 16.2414C1.34791 16.3275 1.17538 16.3728 0.999757 16.3728C0.824137 16.3728 0.651626 16.3274 0.499578 16.2412C0.34753 16.155 0.221308 16.031 0.133609 15.8818C0.0459108 15.7326 -0.000170731 15.5633 4.75323e-07 15.3911V2.93554C0.00190289 2.67783 0.107156 2.43121 0.293 2.24902C1.755 0.813194 7.973 2.42457 9.407 3.00714C9.883 3.20329 11 3.65443 11 4.61459V17.3526C11 17.6127 10.8946 17.8622 10.7071 18.0461C10.5196 18.23 10.2652 18.3334 10 18.3334ZM2.085 14.2701C4.44278 14.3856 6.77147 14.8322 9 15.5961V4.96864C6.7686 4.10932 4.39705 3.65311 2 3.62207V14.273L2.085 14.2701Z" fill="#1F2A37"/>
<path d="M10 18.3334C9.73478 18.3334 9.48043 18.23 9.29289 18.0461C9.10536 17.8622 9 17.6127 9 17.3526V4.61165C9 3.65149 10.117 3.1974 10.593 3.00419C12.027 2.42163 18.243 0.811233 19.707 2.24607C19.8936 2.429 19.9989 2.67681 20 2.93554V15.3911C20 15.5633 19.9538 15.7324 19.866 15.8815C19.7782 16.0306 19.652 16.1544 19.5 16.2404C19.348 16.3265 19.1755 16.3718 19 16.3718C18.8245 16.3718 18.652 16.3265 18.5 16.2404C17.411 15.9462 11.975 17.0505 10.908 17.7626C10.8281 17.9329 10.7001 18.0771 10.5392 18.1783C10.3783 18.2795 10.1911 18.3333 10 18.3334ZM11 4.96864V15.5961C13.2563 14.8267 15.6138 14.3801 18 14.2701V3.62207C15.603 3.65376 13.2316 4.10994 11 4.96864Z" fill="#1F2A37"/>
</svg>
