<svg width="16" height="16" viewBox="0 0 16 16" fill="none" xmlns="http://www.w3.org/2000/svg">
<path d="M7.99984 4.00008C8.73317 4.00008 9.33317 4.60008 9.33317 5.33341C9.33317 6.06675 8.73317 6.66675 7.99984 6.66675C7.2665 6.66675 6.6665 6.06675 6.6665 5.33341C6.6665 4.60008 7.2665 4.00008 7.99984 4.00008ZM7.99984 10.0001C9.79984 10.0001 11.8665 10.8601 11.9998 11.3334V12.0001H3.99984V11.3401C4.13317 10.8601 6.19984 10.0001 7.99984 10.0001ZM7.99984 2.66675C6.5265 2.66675 5.33317 3.86008 5.33317 5.33341C5.33317 6.80675 6.5265 8.00008 7.99984 8.00008C9.47317 8.00008 10.6665 6.80675 10.6665 5.33341C10.6665 3.86008 9.47317 2.66675 7.99984 2.66675ZM7.99984 8.66675C6.21984 8.66675 2.6665 9.56008 2.6665 11.3334V13.3334H13.3332V11.3334C13.3332 9.56008 9.77984 8.66675 7.99984 8.66675Z" fill="#121714"/>
</svg>
