<svg width="16" height="16" viewBox="0 0 16 16" fill="none" xmlns="http://www.w3.org/2000/svg">
<path d="M15.9389 6.01731C15.8688 5.78962 15.7387 5.58714 15.5634 5.43305C15.3881 5.27897 15.1748 5.17953 14.9478 5.14612L10.9075 4.53362L9.10057 0.714248C8.99931 0.499878 8.84254 0.319361 8.64802 0.193131C8.4535 0.0669013 8.229 0 7.99991 0C7.77083 0 7.54632 0.0669013 7.3518 0.193131C7.15728 0.319361 7.00052 0.499878 6.89926 0.714248L5.09229 4.53362L1.05202 5.14612C0.825149 5.18036 0.611999 5.28018 0.436696 5.43427C0.261393 5.58835 0.130939 5.79056 0.0600994 6.01799C-0.0107398 6.24543 -0.0191343 6.48901 0.0358659 6.72116C0.090866 6.95332 0.207064 7.16478 0.371308 7.3316L3.29573 10.3048L2.60542 14.503C2.56624 14.7386 2.59116 14.9808 2.67732 15.2023C2.76349 15.4238 2.90746 15.6157 3.0929 15.7561C3.27833 15.8966 3.49778 15.9799 3.72636 15.9968C3.95493 16.0137 4.18345 15.9634 4.38598 15.8515L7.99991 13.868L11.6138 15.8499C11.8164 15.9612 12.0449 16.0111 12.2733 15.9939C12.5017 15.9768 12.7209 15.8933 12.9061 15.7528C13.0913 15.6124 13.2352 15.4207 13.3213 15.1993C13.4075 14.978 13.4325 14.7359 13.3936 14.5005L12.7041 10.3031L15.6269 7.3316C15.7921 7.1653 15.909 6.95377 15.9642 6.72129C16.0194 6.48881 16.0106 6.24481 15.9389 6.01731ZM4.30999 14.0074L4.90512 10.3841C4.939 10.1795 4.92459 9.96941 4.86312 9.77196C4.80166 9.57451 4.69499 9.39565 4.55236 9.25088L2.02949 6.68405L5.52024 6.15583C5.71711 6.12571 5.90403 6.04619 6.06496 5.92409C6.22588 5.802 6.35599 5.64099 6.44412 5.45487L7.20002 3.85019V12.4219L4.30999 14.0074ZM11.4483 9.25088C11.3054 9.39553 11.1985 9.57432 11.1367 9.77177C11.075 9.96922 11.0603 10.1794 11.0939 10.3841L11.689 14.0065L8.79981 12.4219V3.84935L9.55811 5.45237C9.64579 5.63923 9.77583 5.80096 9.93696 5.92354C10.0981 6.04612 10.2854 6.12585 10.4828 6.15583L13.9703 6.68405L11.4483 9.25088Z" fill="#121714"/>
</svg>
