<svg width="16" height="16" viewBox="0 0 16 16" fill="none" xmlns="http://www.w3.org/2000/svg">
<path d="M14.4 9.43616H10.4V9.8464C10.3978 10.2797 10.2829 10.7046 10.0672 11.0771H14.4V14.359H1.6V11.0771H5.9328C5.71708 10.7046 5.6022 10.2797 5.6 9.8464V9.43616H1.6C1.17565 9.43616 0.768687 9.60905 0.468629 9.91679C0.168571 10.2245 0 10.6419 0 11.0771V14.359C0 14.7943 0.168571 15.2116 0.468629 15.5194C0.768687 15.8271 1.17565 16 1.6 16H14.4C14.8243 16 15.2313 15.8271 15.5314 15.5194C15.8314 15.2116 16 14.7943 16 14.359V11.0771C16 10.6419 15.8314 10.2245 15.5314 9.91679C15.2313 9.60905 14.8243 9.43616 14.4 9.43616Z" fill="#333192"/>
<path d="M5.3656 4.68312L7.2 2.80176V9.8464C7.2 10.064 7.28429 10.2727 7.43431 10.4266C7.58434 10.5804 7.78783 10.6669 8 10.6669C8.21217 10.6669 8.41566 10.5804 8.56569 10.4266C8.71571 10.2727 8.8 10.064 8.8 9.8464V2.80176L10.6344 4.68312C10.7853 4.83258 10.9874 4.91528 11.1971 4.91341C11.4069 4.91154 11.6075 4.82525 11.7559 4.67313C11.9042 4.52101 11.9883 4.31522 11.9901 4.10009C11.992 3.88496 11.9113 3.67771 11.7656 3.52297L8.5656 0.241047C8.49129 0.164638 8.40301 0.104017 8.30581 0.0626538C8.20862 0.021291 8.10443 0 7.9992 0C7.89397 0 7.78978 0.021291 7.69259 0.0626538C7.59539 0.104017 7.50711 0.164638 7.4328 0.241047L4.2328 3.52297C4.08279 3.67703 3.99861 3.8859 3.99876 4.10362C3.99891 4.32135 4.08338 4.5301 4.2336 4.68394C4.38382 4.83779 4.58747 4.92413 4.79977 4.92398C5.01206 4.92383 5.21559 4.83719 5.3656 4.68312Z" fill="#333192"/>
<path d="M12 13.5386C12.4418 13.5386 12.8 13.1712 12.8 12.7181C12.8 12.2649 12.4418 11.8976 12 11.8976C11.5582 11.8976 11.2 12.2649 11.2 12.7181C11.2 13.1712 11.5582 13.5386 12 13.5386Z" fill="#333192"/>
</svg>
